<svg width="185px" height="77px" viewBox="0 0 185 77" version="1.1" xmlns="http://www.w3.org/2000/svg" xmlns:xlink="http://www.w3.org/1999/xlink">
    <!-- Generator: Sketch 41 (35326) - http://www.bohemiancoding.com/sketch -->
    <title>logo</title>
    <desc>Created with Sketch.</desc>
    <defs></defs>
    <g id="Brand" stroke="none" stroke-width="1" fill="none" fill-rule="evenodd">
        <g id="Icons" transform="translate(-167.000000, -1653.000000)" fill="#FF6600">
            <path d="M260.5,1653 L260.5,1690.7 L260.5,1690.8 L260.5,1690.9 L267.5,1682.6 L271.2,1682.6 L271.2,1700 L267.5,1700 L267.5,1690 L267.6,1687.5 L267.6,1687.4 L260.5,1695.8 L260.5,1695.9 L260.5,1696 L260.5,1729.7 L351.1,1729.7 L351.1,1653 L260.5,1653 Z M256.6,1696 L256.6,1695.8 L249.6,1687.4 L249.5,1687.3 L249.6,1690 L249.6,1700 L245.9,1700 L245.9,1682.6 L249.6,1682.6 L256.6,1690.9 L256.6,1690.8 L256.6,1690.7 L256.6,1653 L167,1653 L167,1729.6 L256.6,1729.6 L256.6,1696 Z M210.5,1700 L207.8,1695.1 L207.6,1695.1 L207.5,1695.1 L206.6,1695.1 L201.3,1695.1 L203.1,1691.7 L205.5,1691.7 L206,1691.7 L202.7,1685.7 L202.7,1685.6 L198.9,1692.4 L194.7,1700 L190.5,1700 L200.5,1682.5 L204.8,1682.5 L214.8,1700 L210.5,1700 L210.5,1700 Z M235.1,1700 L227.9,1693.7 L227.9,1690.3 L233.5,1690.3 C235.4,1690.3 236.4,1689.6 236.4,1688.1 C236.4,1686.6 235.4,1685.9 233.5,1685.9 L223.1,1685.9 L223.1,1700 L219.4,1700 L219.4,1682.6 L233.3,1682.6 C238.9,1682.6 240,1685.6 240,1688.2 C240,1692.7 236.4,1693.7 233.3,1693.7 L233,1693.7 L240.7,1700.1 L235.1,1700 Z M322.1,1700 L314.9,1693.7 L314.9,1690.3 L320.5,1690.3 C322.4,1690.3 323.4,1689.6 323.4,1688.1 C323.4,1686.6 322.4,1685.9 320.5,1685.9 L310.1,1685.9 L310.1,1700 L306.4,1700 L306.4,1682.6 L320.3,1682.6 C325.9,1682.6 327,1685.6 327,1688.2 C327,1692.7 323.4,1693.7 320.3,1693.7 L320,1693.7 L327.7,1700.1 L322.1,1700 Z M297.6,1697.8 C295.5,1699.5 292.5,1700.4 288.8,1700.4 C285.1,1700.4 282.1,1699.5 280,1697.8 C278.1,1696.2 277,1693.9 277,1691.3 C277,1688.7 278,1686.4 280,1684.8 C282.1,1683.1 285.1,1682.2 288.8,1682.2 C292.5,1682.2 295.5,1683.1 297.6,1684.8 C299.5,1686.4 300.6,1688.7 300.6,1691.3 C300.6,1693.9 299.5,1696.2 297.6,1697.8 Z M288.8,1685.6 C283.7,1685.6 280.8,1687.7 280.8,1691.3 C280.8,1694.9 283.7,1697 288.8,1697 C293.9,1697 296.8,1694.9 296.8,1691.3 C296.8,1687.7 293.9,1685.6 288.8,1685.6 Z" id="logo"></path>
        </g>
    </g>
</svg>
