<?xml version="1.0" standalone="no"?>
<!DOCTYPE svg PUBLIC "-//W3C//DTD SVG 20010904//EN"
 "http://www.w3.org/TR/2001/REC-SVG-20010904/DTD/svg10.dtd">
<svg version="1.0" xmlns="http://www.w3.org/2000/svg"
 width="100.000000pt" height="100.000000pt" viewBox="0 0 100.000000 100.000000"
 preserveAspectRatio="xMidYMid meet">

<g transform="translate(0.000000,100.000000) scale(0.100000,-0.100000)"
fill="#ECECEC" stroke="none">
<path d="M172 949 c-47 -14 -109 -79 -123 -131 -11 -42 -7 -116 9 -144 6 -10
44 22 146 125 l139 139 -39 11 c-46 13 -87 13 -132 0z m3 -119 c-50 -50 -91
-86 -93 -80 -8 24 10 81 35 111 31 36 75 58 118 59 28 0 26 -4 -60 -90z"/>
<path d="M691 949 l-34 -10 139 -140 c156 -156 159 -157 159 -39 0 77 -25 127
-85 166 -43 29 -125 39 -179 23z m132 -43 c45 -18 84 -67 92 -116 4 -23 5 -43
3 -45 -2 -3 -44 36 -93 85 -83 83 -88 90 -62 90 15 0 42 -6 60 -14z"/>
<path d="M390 865 c-283 -79 -401 -421 -226 -655 l34 -45 -51 -52 c-40 -42
-49 -55 -39 -65 10 -10 24 -1 66 41 l54 53 35 -27 c122 -92 318 -97 457 -10
l55 34 52 -52 c42 -40 55 -49 65 -39 10 10 1 23 -39 65 l-51 52 34 45 c58 77
78 142 78 250 0 109 -20 172 -79 252 -96 131 -287 197 -445 153z m275 -64 c80
-39 155 -120 186 -199 32 -80 32 -204 0 -284 -27 -71 -102 -155 -168 -190
-193 -103 -429 -27 -525 170 -30 61 -33 75 -33 162 0 87 3 101 32 161 51 103
146 181 258 210 17 5 65 7 109 4 62 -2 91 -9 141 -34z"/>
<path d="M487 754 c-4 -4 -7 -67 -7 -140 l0 -133 -77 -3 c-61 -2 -78 -6 -78
-18 0 -12 17 -15 95 -15 l95 0 0 154 c0 145 -6 177 -28 155z"/>
</g>
</svg>
