<?xml version="1.0" standalone="no"?>
<!DOCTYPE svg PUBLIC "-//W3C//DTD SVG 20010904//EN"
 "http://www.w3.org/TR/2001/REC-SVG-20010904/DTD/svg10.dtd">
<svg version="1.0" xmlns="http://www.w3.org/2000/svg"
 width="100.000000pt" height="100.000000pt" viewBox="0 0 100.000000 100.000000"
 preserveAspectRatio="xMidYMid meet">

<g transform="translate(0.000000,100.000000) scale(0.100000,-0.100000)"
fill="#ECECEC" stroke="none">
<path d="M79 979 c-21 -21 -21 -27 -14 -173 9 -180 9 -244 0 -437 -7 -141 -6
-148 14 -168 17 -17 33 -21 80 -21 l58 0 6 -42 c6 -45 28 -81 71 -112 39 -30
153 -30 192 0 43 31 65 67 71 112 l6 42 157 0 158 0 26 31 c47 56 76 200 75
384 0 194 -26 327 -74 379 l-24 26 -221 0 c-207 0 -221 -1 -240 -20 -19 -19
-20 -33 -20 -390 0 -357 1 -371 20 -390 14 -14 33 -20 61 -20 l42 0 -6 -37
c-4 -22 -19 -49 -37 -68 -27 -27 -37 -30 -90 -30 -53 0 -63 3 -90 30 -18 19
-33 46 -37 68 l-6 37 42 0 c28 0 47 6 62 21 20 20 21 27 14 168 -9 193 -9 257
0 437 10 199 14 194 -155 194 -109 0 -122 -2 -141 -21z m255 -144 c-3 -258 -4
-355 -1 -480 l2 -130 -115 0 -115 0 2 125 c1 69 3 166 4 215 1 50 -1 152 -6
227 -4 75 -5 144 -2 153 6 13 23 15 119 13 l113 -3 -1 -120z m552 101 c37 -57
48 -135 48 -331 1 -196 -7 -259 -44 -342 l-19 -43 -213 2 -213 3 -3 355 c-1
195 0 361 3 367 3 10 55 13 214 13 l211 0 16 -24z"/>
<path d="M524 887 c-3 -8 -4 -52 -2 -98 l3 -84 155 0 155 0 0 95 0 95 -153 3
c-121 2 -153 0 -158 -11z m276 -87 l0 -60 -120 0 -120 0 0 60 0 60 120 0 120
0 0 -60z"/>
<path d="M524 646 c-3 -8 -4 -25 -2 -38 2 -19 9 -23 38 -23 33 0 35 2 35 35 0
32 -3 35 -33 38 -21 2 -34 -2 -38 -12z"/>
<path d="M644 646 c-3 -8 -4 -25 -2 -38 2 -19 9 -23 38 -23 33 0 35 2 35 35 0
32 -3 35 -33 38 -21 2 -34 -2 -38 -12z"/>
<path d="M764 646 c-3 -8 -4 -25 -2 -38 2 -19 9 -23 38 -23 33 0 35 2 35 35 0
32 -3 35 -33 38 -21 2 -34 -2 -38 -12z"/>
<path d="M524 526 c-3 -8 -4 -25 -2 -38 2 -19 9 -23 38 -23 33 0 35 2 35 35 0
32 -3 35 -33 38 -21 2 -34 -2 -38 -12z"/>
<path d="M644 526 c-3 -8 -4 -25 -2 -38 2 -19 9 -23 38 -23 33 0 35 2 35 35 0
32 -3 35 -33 38 -21 2 -34 -2 -38 -12z"/>
<path d="M764 526 c-3 -8 -4 -25 -2 -38 2 -19 9 -23 38 -23 33 0 35 2 35 35 0
32 -3 35 -33 38 -21 2 -34 -2 -38 -12z"/>
<path d="M524 406 c-3 -8 -4 -25 -2 -38 2 -19 9 -23 38 -23 33 0 35 2 35 35 0
32 -3 35 -33 38 -21 2 -34 -2 -38 -12z"/>
<path d="M644 406 c-3 -8 -4 -25 -2 -38 2 -19 9 -23 38 -23 33 0 35 2 35 35 0
32 -3 35 -33 38 -21 2 -34 -2 -38 -12z"/>
<path d="M764 406 c-3 -8 -4 -25 -2 -38 2 -19 9 -23 38 -23 33 0 35 2 35 35 0
32 -3 35 -33 38 -21 2 -34 -2 -38 -12z"/>
</g>
</svg>
